<svg width="316" height="68" viewBox="0 0 316 68" fill="none" xmlns="http://www.w3.org/2000/svg">
<path d="M98.9642 35.795V35.0065C98.9642 33.0251 98.2867 31.5088 96.9317 30.4574C95.6178 29.3656 93.8933 28.8197 91.7582 28.8197C90.1158 28.8197 88.8225 29.1028 87.8781 29.6689C86.9748 30.1946 86.1126 31.0033 85.2914 32.0951C85.045 32.4186 84.7781 32.641 84.4907 32.7623C84.2033 32.8836 83.8132 32.9442 83.3205 32.9442H81.4728C81.0212 32.9442 80.6106 32.7825 80.2411 32.459C79.9126 32.1355 79.7689 31.7514 79.8099 31.3066C79.9331 30.0935 80.5285 28.9006 81.596 27.728C82.7046 26.5149 84.1622 25.5242 85.9688 24.7559C87.7755 23.9876 89.7052 23.6035 91.7582 23.6035C95.5767 23.6035 98.6562 24.6548 100.997 26.7575C103.378 28.8602 104.569 31.812 104.569 35.613V54.1126C104.569 54.5574 104.405 54.9415 104.076 55.265C103.748 55.5885 103.358 55.7503 102.906 55.7503H100.627C100.175 55.7503 99.7853 55.5885 99.4569 55.265C99.1284 54.9415 98.9642 54.5574 98.9642 54.1126V51.6258C98.3072 53.0815 96.9112 54.2339 94.7761 55.083C92.641 55.9322 90.5059 56.3568 88.3708 56.3568C86.2768 56.3568 84.4086 55.9929 82.7662 55.265C81.1238 54.4967 79.851 53.4656 78.9477 52.1716C78.0854 50.8777 77.6543 49.422 77.6543 47.8045C77.6543 44.7718 78.804 42.4063 81.1033 40.708C83.4026 38.9692 86.4616 37.7966 90.2801 37.19L98.9642 35.795ZM98.9642 40.6473L91.6966 41.7998C89.0278 42.2041 86.9543 42.8713 85.4761 43.8014C83.998 44.6909 83.2589 45.8232 83.2589 47.198C83.2589 48.2089 83.7311 49.1187 84.6755 49.9274C85.6198 50.7362 87.0569 51.1405 88.9867 51.1405C91.943 51.1405 94.345 50.3116 96.1926 48.6537C98.0403 46.9958 98.9642 44.8325 98.9642 42.1637V40.6473Z" fill="white"/>
<path d="M119.159 54.1126C119.159 54.5574 118.995 54.9415 118.666 55.265C118.338 55.5885 117.948 55.7503 117.496 55.7503H115.217C114.766 55.7503 114.376 55.5885 114.047 55.265C113.719 54.9415 113.555 54.5574 113.555 54.1126V14.3234C113.555 13.8786 113.719 13.4944 114.047 13.1709C114.376 12.8475 114.766 12.6857 115.217 12.6857H117.496C117.948 12.6857 118.338 12.8475 118.666 13.1709C118.995 13.4944 119.159 13.8786 119.159 14.3234V54.1126Z" fill="white"/>
<path d="M141.344 51.1405C145.45 51.1405 148.222 49.5635 149.659 46.4095C149.946 45.8029 150.234 45.3784 150.521 45.1357C150.808 44.8931 151.198 44.7718 151.691 44.7718H153.539C153.991 44.7718 154.381 44.9336 154.709 45.2571C155.038 45.5401 155.202 45.8838 155.202 46.2882C155.202 47.663 154.647 49.1389 153.539 50.7159C152.43 52.2929 150.829 53.6273 148.735 54.7191C146.641 55.8109 144.177 56.3568 141.344 56.3568C138.429 56.3568 135.904 55.7502 133.769 54.5372C131.634 53.3241 129.991 51.6662 128.842 49.5635C127.692 47.4204 127.056 45.0347 126.932 42.4063C126.891 41.9211 126.871 40.991 126.871 39.6162C126.871 38.6457 126.891 37.9583 126.932 37.554C127.302 33.4295 128.718 30.0733 131.182 27.4854C133.646 24.8974 137.033 23.6035 141.344 23.6035C144.177 23.6035 146.62 24.1494 148.673 25.2411C150.767 26.2925 152.348 27.6067 153.416 29.1837C154.524 30.7202 155.12 32.1759 155.202 33.5508C155.243 33.9956 155.079 34.3797 154.709 34.7032C154.381 35.0267 153.991 35.1884 153.539 35.1884H151.691C151.198 35.1884 150.808 35.0671 150.521 34.8245C150.234 34.5819 149.946 34.1573 149.659 33.5508C148.222 30.3968 145.45 28.8197 141.344 28.8197C139.086 28.8197 137.115 29.5678 135.432 31.064C133.748 32.5601 132.783 34.8245 132.537 37.8572C132.496 38.302 132.475 39.0299 132.475 40.0408C132.475 40.9708 132.496 41.6582 132.537 42.103C132.824 45.1357 133.789 47.4002 135.432 48.8963C137.115 50.3924 139.086 51.1405 141.344 51.1405Z" fill="white"/>
<path d="M191.027 54.1126C191.027 54.5574 190.863 54.9415 190.535 55.265C190.206 55.5885 189.816 55.7503 189.365 55.7503H187.086C186.634 55.7503 186.244 55.5885 185.916 55.265C185.587 54.9415 185.423 54.5574 185.423 54.1126V38.0998C185.423 35.0671 184.663 32.7623 183.144 31.1853C181.625 29.6083 179.51 28.8197 176.8 28.8197C174.131 28.8197 172.017 29.6083 170.457 31.1853C168.937 32.7623 168.178 35.0671 168.178 38.0998V54.1126C168.178 54.5574 168.014 54.9415 167.685 55.265C167.357 55.5885 166.967 55.7503 166.515 55.7503H164.236C163.785 55.7503 163.394 55.5885 163.066 55.265C162.737 54.9415 162.573 54.5574 162.573 54.1126V14.3234C162.573 13.8786 162.737 13.4944 163.066 13.1709C163.394 12.8475 163.785 12.6857 164.236 12.6857H166.515C166.967 12.6857 167.357 12.8475 167.685 13.1709C168.014 13.4944 168.178 13.8786 168.178 14.3234V27.728C169.081 26.5553 170.313 25.5848 171.873 24.8166C173.475 24.0078 175.425 23.6035 177.724 23.6035C180.311 23.6035 182.61 24.1494 184.622 25.2411C186.634 26.3329 188.194 27.9099 189.303 29.9722C190.453 31.994 191.027 34.3999 191.027 37.19V54.1126Z" fill="white"/>
<path d="M212.61 23.6035C217.003 23.6035 220.472 24.9783 223.018 27.728C225.564 30.4776 226.837 34.218 226.837 38.949V40.5867C226.837 41.0315 226.672 41.4156 226.344 41.7391C226.016 42.0626 225.625 42.2243 225.174 42.2243H203.987V42.5883C204.069 45.2571 204.89 47.3597 206.451 48.8963C208.052 50.3924 210.105 51.1405 212.61 51.1405C214.663 51.1405 216.243 50.8777 217.352 50.352C218.502 49.8263 219.528 49.0783 220.431 48.1078C220.76 47.7843 221.047 47.5619 221.294 47.4406C221.581 47.3193 221.951 47.2586 222.402 47.2586H224.25C224.743 47.2586 225.153 47.4204 225.482 47.7439C225.81 48.0674 225.954 48.4515 225.913 48.8963C225.749 49.9881 225.133 51.1203 224.065 52.293C223.039 53.4252 221.54 54.3956 219.569 55.2044C217.639 55.9726 215.32 56.3568 212.61 56.3568C209.982 56.3568 207.641 55.7705 205.588 54.5978C203.535 53.3847 201.893 51.7268 200.661 49.6242C199.471 47.5215 198.752 45.156 198.506 42.5276C198.424 41.3145 198.383 40.3845 198.383 39.7375C198.383 39.0905 198.424 38.1605 198.506 36.9474C198.752 34.4404 199.471 32.176 200.661 30.1541C201.893 28.1323 203.515 26.5351 205.527 25.3625C207.58 24.1898 209.941 23.6035 212.61 23.6035ZM221.294 37.1294V36.9474C221.294 34.4808 220.493 32.5197 218.892 31.064C217.331 29.5678 215.237 28.8197 212.61 28.8197C210.228 28.8197 208.196 29.5678 206.512 31.064C204.87 32.5601 204.028 34.5212 203.987 36.9474V37.1294H221.294Z" fill="white"/>
<path d="M239.871 27.728C240.857 26.4744 241.966 25.4838 243.197 24.7559C244.429 23.9876 246.071 23.6035 248.124 23.6035C252.928 23.6035 256.295 25.3625 258.225 28.8804C259.416 27.1821 260.771 25.8881 262.29 24.9985C263.809 24.0685 265.8 23.6035 268.264 23.6035C272.288 23.6035 275.265 24.7963 277.195 27.1821C279.165 29.5678 280.151 32.9442 280.151 37.3113V54.1126C280.151 54.5574 279.987 54.9415 279.658 55.265C279.33 55.5885 278.94 55.7503 278.488 55.7503H276.209C275.757 55.7503 275.367 55.5885 275.039 55.265C274.71 54.9415 274.546 54.5574 274.546 54.1126V37.9179C274.546 31.8525 272.124 28.8197 267.279 28.8197C265.061 28.8197 263.296 29.5476 261.982 31.0033C260.668 32.459 260.011 34.6223 260.011 37.4933V54.1126C260.011 54.5574 259.847 54.9415 259.518 55.265C259.19 55.5885 258.8 55.7503 258.348 55.7503H256.069C255.618 55.7503 255.228 55.5885 254.899 55.265C254.571 54.9415 254.407 54.5574 254.407 54.1126V37.9179C254.407 31.8525 251.984 28.8197 247.139 28.8197C244.922 28.8197 243.156 29.5476 241.842 31.0033C240.528 32.459 239.871 34.6223 239.871 37.4933V54.1126C239.871 54.5574 239.707 54.9415 239.379 55.265C239.05 55.5885 238.66 55.7503 238.209 55.7503H235.93C235.478 55.7503 235.088 55.5885 234.76 55.265C234.431 54.9415 234.267 54.5574 234.267 54.1126V25.8477C234.267 25.4029 234.431 25.0187 234.76 24.6953C235.088 24.3718 235.478 24.21 235.93 24.21H238.209C238.66 24.21 239.05 24.3718 239.379 24.6953C239.707 25.0187 239.871 25.4029 239.871 25.8477V27.728Z" fill="white"/>
<path d="M297.4 65.8189C297.031 66.7893 296.435 67.2745 295.614 67.2745H293.089C292.678 67.2745 292.329 67.133 292.042 66.85C291.754 66.5669 291.611 66.2232 291.611 65.8189C291.611 65.6571 291.631 65.5156 291.672 65.3943L297.585 52.7175L285.39 26.0903C285.349 25.969 285.329 25.8275 285.329 25.6657C285.329 25.2614 285.472 24.9177 285.76 24.6346C286.047 24.3515 286.396 24.21 286.807 24.21H289.332C290.153 24.21 290.748 24.6953 291.118 25.6657L300.603 46.2882L310.211 25.6657C310.58 24.6953 311.176 24.21 311.997 24.21H314.522C314.932 24.21 315.281 24.3515 315.569 24.6346C315.856 24.9177 316 25.2614 316 25.6657C316 25.8275 315.979 25.969 315.938 26.0903L297.4 65.8189Z" fill="white"/>
<path d="M54.3684 35.6852L33.688 0.57466C33.5878 0.40129 33.4428 0.256873 33.2676 0.155982C33.0923 0.0550922 32.893 0.00129611 32.6897 2.31292e-05C32.4865 -0.00124985 32.2865 0.0500448 32.11 0.148732C31.9334 0.247418 31.7866 0.390007 31.6843 0.562109L25.4907 11.0827C25.2878 11.4271 25.181 11.8177 25.181 12.2154C25.181 12.6131 25.2878 13.0037 25.4907 13.3481L38.9756 36.2531C39.1787 36.5978 39.4708 36.884 39.8226 37.0828C40.1743 37.2817 40.5733 37.3862 40.9794 37.3858H53.3666C53.5694 37.3852 53.7684 37.3324 53.9439 37.2328C54.1194 37.1332 54.2651 36.9901 54.3665 36.818C54.4679 36.6458 54.5215 36.4506 54.5218 36.2518C54.5221 36.053 54.4692 35.8576 54.3684 35.6852Z" fill="#363FF9"/>
<path d="M0.159468 54.0352L20.8399 18.9247C20.9414 18.7527 21.0873 18.6099 21.2629 18.5106C21.4384 18.4114 21.6375 18.3591 21.8402 18.3591C22.0429 18.3591 22.242 18.4114 22.4176 18.5106C22.5932 18.6099 22.739 18.7527 22.8404 18.9247L29.0372 29.4359C29.2401 29.7809 29.3468 30.172 29.3468 30.5702C29.3468 30.9683 29.2401 31.3595 29.0372 31.7044L15.5522 54.6094C15.3499 54.9541 15.0585 55.2404 14.7072 55.4392C14.3559 55.6381 13.9573 55.7426 13.5517 55.7421H1.16132C0.957214 55.7431 0.756485 55.6911 0.579536 55.5914C0.402587 55.4917 0.255752 55.3477 0.153959 55.1743C0.052165 55.0009 -0.000958309 54.8041 1.30867e-05 54.604C0.000984482 54.404 0.0559949 54.2077 0.159468 54.0352Z" fill="#363FF9"/>
<path d="M22.8375 55.7346H64.1984C64.4013 55.7344 64.6006 55.6819 64.7762 55.5822C64.9518 55.4826 65.0975 55.3394 65.1987 55.167C65.3 54.9946 65.3531 54.7992 65.3528 54.6003C65.3525 54.4014 65.2988 54.2061 65.1971 54.034L59.0099 43.5165C58.8069 43.1718 58.5148 42.8856 58.163 42.6868C57.8113 42.4879 57.4122 42.3834 57.0062 42.3838H30.0361C29.6301 42.3834 29.2311 42.4879 28.8793 42.6868C28.5276 42.8856 28.2354 43.1718 28.0324 43.5165L21.8389 54.034C21.7371 54.2061 21.6834 54.4014 21.6831 54.6003C21.6828 54.7992 21.7359 54.9946 21.8371 55.167C21.9384 55.3394 22.0842 55.4826 22.2598 55.5822C22.4354 55.6819 22.6346 55.7344 22.8375 55.7346Z" fill="#363FF9"/>
</svg>
