<svg width="66" height="56" viewBox="0 0 66 56" fill="none" xmlns="http://www.w3.org/2000/svg">
<path d="M54.6199 35.8503L33.8438 0.577318C33.7432 0.403146 33.5975 0.258061 33.4215 0.156704C33.2454 0.0553471 33.0452 0.00130211 32.841 2.32362e-05C32.6368 -0.00125564 32.4359 0.0502763 32.2585 0.14942C32.0812 0.248563 31.9337 0.391811 31.8308 0.564709L25.6086 11.134C25.4048 11.48 25.2975 11.8724 25.2975 12.2719C25.2975 12.6714 25.4048 13.0639 25.6086 13.4099L39.156 36.4208C39.3599 36.7671 39.6534 37.0546 40.0068 37.2544C40.3602 37.4542 40.761 37.5591 41.1689 37.5587H53.6135C53.8172 37.5581 54.0172 37.5052 54.1935 37.405C54.3698 37.3049 54.5162 37.1612 54.618 36.9883C54.7199 36.8154 54.7737 36.6192 54.774 36.4195C54.7744 36.2198 54.7212 36.0235 54.6199 35.8503Z" fill="white"/>
<path d="M0.160205 54.2852L20.9363 19.0123C21.0383 18.8395 21.1848 18.696 21.3612 18.5963C21.5376 18.4965 21.7376 18.444 21.9412 18.444C22.1448 18.444 22.3449 18.4965 22.5213 18.5963C22.6977 18.696 22.8442 18.8395 22.9461 19.0123L29.1716 29.5721C29.3753 29.9186 29.4825 30.3116 29.4825 30.7116C29.4825 31.1116 29.3753 31.5046 29.1716 31.8511L15.6241 54.8621C15.4209 55.2083 15.1281 55.4959 14.7752 55.6957C14.4223 55.8955 14.0219 56.0005 13.6144 56H1.1667C0.961642 56.001 0.759984 55.9488 0.582217 55.8486C0.404449 55.7484 0.256935 55.6038 0.154671 55.4296C0.0524063 55.2553 -0.000962742 55.0577 1.31472e-05 54.8567C0.000989037 54.6556 0.056254 54.4585 0.160205 54.2852Z" fill="white"/>
<path d="M22.9431 55.9925H64.4954C64.6992 55.9923 64.8995 55.9395 65.0759 55.8394C65.2523 55.7393 65.3987 55.5954 65.5004 55.4222C65.6021 55.2491 65.6555 55.0527 65.6552 54.8529C65.6549 54.6531 65.6009 54.4568 65.4987 54.284L59.2829 43.7178C59.0789 43.3715 58.7855 43.084 58.4321 42.8842C58.0787 42.6845 57.6778 42.5795 57.2699 42.5799H30.1751C29.7671 42.5795 29.3663 42.6845 29.0129 42.8842C28.6595 43.084 28.3661 43.3715 28.1621 43.7178L21.9399 54.284C21.8377 54.4568 21.7837 54.6531 21.7834 54.8529C21.7831 55.0527 21.8365 55.2491 21.9382 55.4222C22.0399 55.5954 22.1863 55.7393 22.3627 55.8394C22.5391 55.9395 22.7393 55.9923 22.9431 55.9925Z" fill="white"/>
</svg>
